ffmpeg started on 2025-05-26 at 18:13:41
Report written to "D:\Convert\FFMetrics\reports\ssim_report-6.txt"
Log level: 32
Command line:
ffmpeg -hide_banner -nostdin -i "G:\\\xc0\xed\xe8\xec\xe5\\\xce\xed\xe3\xee\xe8\xed\xe3\xe8\\!_34_\xc2\xe5\xf1\xed\xe0_2024\\DreamCast\\\xc4\xe2\xe5 \xf1\xf2\xee\xf0\xee\xed\xfb \xf1\xfd\xe9\xfe \xf0\xe0\xe4\xe8\xee\\[DC] Seiyuu Radio no Uraomote - 06_Telegram_HEVC.mkv" -i "G:\\\xc0\xed\xe8\xec\xe5\\\xce\xed\xe3\xee\xe8\xed\xe3\xe8\\!_34_\xc2\xe5\xf1\xed\xe0_2024\\DreamCast\\\xc4\xe2\xe5 \xf1\xf2\xee\xf0\xee\xed\xfb \xf1\xfd\xe9\xfe \xf0\xe0\xe4\xe8\xee\\[DC] Seiyuu Radio no Uraomote - 06_Telegram.mp4" -lavfi "[0:v]settb=AVTB,setpts=PTS-STARTPTS,format=pix_fmts=yuv420p10,fps=24000/1001,scale=1920:1080:flags=bicubic[main];[1:v]settb=AVTB,setpts=PTS-STARTPTS,format=pix_fmts=yuv420p,fps=24000/1001,scale=1920:1080:flags=bicubic[ref];[main][ref]ssim=eof_action=endall:stats_file='D\\:/Convert/FFMetrics/logs/ssim_logfile-6.txt'" -f null -
Input #0, matroska,webm, from 'G:\Аниме\Онгоинги\!_34_Весна_2024\DreamCast\Две стороны сэйю радио\[DC] Seiyuu Radio no Uraomote - 06_Telegram_HEVC.mkv':
  Metadata:
    COMPATIBLE_BRANDS: isomiso2avc1mp41
    MAJOR_BRAND     : isom
    MINOR_VERSION   : 512
    ENCODER         : Lavf61.7.100
  Duration: 00:23:46.73, start: -0.021000, bitrate: 784 kb/s
  Stream #0:0: Video: hevc (Main 10), yuv420p10le(tv, bt709, progressive), 1920x1080 [SAR 1:1 DAR 16:9], 23.98 fps, 23.98 tbr, 1k tbn (default)
      Metadata:
        HANDLER_NAME    : VideoHandler
        VENDOR_ID       : [0][0][0][0]
        ENCODER         : Lavc61.19.100 libx265
        BPS             : 587428
        DURATION        : 00:23:46.549708333
        NUMBER_OF_FRAMES: 34203
        NUMBER_OF_BYTES : 104749394
        _STATISTICS_WRITING_APP: mkvpropedit v66.0.0 ('Josie') 64-bit
        _STATISTICS_WRITING_DATE_UTC: 2025-05-26 08:41:02
        _STATISTICS_TAGS: BPS DURATION NUMBER_OF_FRAMES NUMBER_OF_BYTES
  Stream #0:1: Audio: aac (LC), 48000 Hz, stereo, fltp (default)
      Metadata:
        HANDLER_NAME    : SoundHandler
        VENDOR_ID       : [0][0][0][0]
        ENCODER         : Lavc61.19.100 aac
        BPS             : 192612
        DURATION        : 00:23:46.730000000
        NUMBER_OF_FRAMES: 66879
        NUMBER_OF_BYTES : 34350730
        _STATISTICS_WRITING_APP: mkvpropedit v66.0.0 ('Josie') 64-bit
        _STATISTICS_WRITING_DATE_UTC: 2025-05-26 08:41:02
        _STATISTICS_TAGS: BPS DURATION NUMBER_OF_FRAMES NUMBER_OF_BYTES
Input #1, mov,mp4,m4a,3gp,3g2,mj2, from 'G:\Аниме\Онгоинги\!_34_Весна_2024\DreamCast\Две стороны сэйю радио\[DC] Seiyuu Radio no Uraomote - 06_Telegram.mp4':
  Metadata:
    major_brand     : isom
    minor_version   : 512
    compatible_brands: isomiso2avc1mp41
    encoder         : Lavf60.16.100
  Duration: 00:23:46.68, start: 0.000000, bitrate: 3595 kb/s
  Stream #1:0[0x1](und): Video: h264 (High) (avc1 / 0x31637661), yuv420p(tv, bt709, progressive), 1920x1080 [SAR 1:1 DAR 16:9], 3447 kb/s, 23.98 fps, 23.98 tbr, 24k tbn (default)
      Metadata:
        handler_name    : VideoHandler
        vendor_id       : [0][0][0][0]
        encoder         : Lavc60.31.102 h264_qsv
  Stream #1:1[0x2](und): Audio: aac (HE-AACv2) (mp4a / 0x6134706D), 48000 Hz, stereo, fltp, 144 kb/s (default)
      Metadata:
        handler_name    : SoundHandler
        vendor_id       : [0][0][0][0]
Stream mapping:
  Stream #0:0 (hevc) -> settb:default
  Stream #1:0 (h264) -> settb:default
  ssim:default -> Stream #0:0 (wrapped_avframe)
  Stream #0:1 -> #0:1 (aac (native) -> pcm_s16le (native))
Output #0, null, to 'pipe:':
  Metadata:
    COMPATIBLE_BRANDS: isomiso2avc1mp41
    MAJOR_BRAND     : isom
    MINOR_VERSION   : 512
    encoder         : Lavf61.7.100
  Stream #0:0: Video: wrapped_avframe, yuv420p10le(tv, bt709, progressive), 1920x1080 [SAR 1:1 DAR 16:9], q=2-31, 200 kb/s, 23.98 fps, 23.98 tbn
      Metadata:
        encoder         : Lavc61.19.100 wrapped_avframe
  Stream #0:1: Audio: pcm_s16le, 48000 Hz, stereo, s16, 1536 kb/s (default)
      Metadata:
        HANDLER_NAME    : SoundHandler
        VENDOR_ID       : [0][0][0][0]
        _STATISTICS_TAGS: BPS DURATION NUMBER_OF_FRAMES NUMBER_OF_BYTES
        BPS             : 192612
        DURATION        : 00:23:46.730000000
        NUMBER_OF_FRAMES: 66879
        NUMBER_OF_BYTES : 34350730
        _STATISTICS_WRITING_APP: mkvpropedit v66.0.0 ('Josie') 64-bit
        _STATISTICS_WRITING_DATE_UTC: 2025-05-26 08:41:02
        encoder         : Lavc61.19.100 pcm_s16le
frame=  179 fps=0.0 q=-0.0 size=N/A time=00:00:07.46 bitrate=N/A speed=14.8x    frame=  427 fps=416 q=-0.0 size=N/A time=00:00:17.80 bitrate=N/A speed=17.4x    frame=  692 fps=447 q=-0.0 size=N/A time=00:00:28.86 bitrate=N/A speed=18.6x    frame=  966 fps=470 q=-0.0 size=N/A time=00:00:40.29 bitrate=N/A speed=19.6x    frame= 1229 fps=477 q=-0.0 size=N/A time=00:00:51.25 bitrate=N/A speed=19.9x    frame= 1454 fps=472 q=-0.0 size=N/A time=00:01:00.64 bitrate=N/A speed=19.7x    frame= 1700 fps=471 q=-0.0 size=N/A time=00:01:10.90 bitrate=N/A speed=19.7x    frame= 1937 fps=471 q=-0.0 size=N/A time=00:01:20.78 bitrate=N/A speed=19.6x    frame= 2081 fps=449 q=-0.0 size=N/A time=00:01:26.79 bitrate=N/A speed=18.7x    frame= 2218 fps=430 q=-0.0 size=N/A time=00:01:32.50 bitrate=N/A speed=17.9x    frame= 2435 fps=430 q=-0.0 size=N/A time=00:01:41.55 bitrate=N/A speed=17.9x    frame= 2646 fps=428 q=-0.0 size=N/A time=00:01:50.36 bitrate=N/A speed=17.8x    frame= 2863 fps=428 q=-0.0 size=N/A time=00:01:59.41 bitrate=N/A speed=17.8x    frame= 3079 fps=427 q=-0.0 size=N/A time=00:02:08.41 bitrate=N/A speed=17.8x    frame= 3279 fps=425 q=-0.0 size=N/A time=00:02:16.76 bitrate=N/A speed=17.7x    frame= 3543 fps=430 q=-0.0 size=N/A time=00:02:27.77 bitrate=N/A speed=17.9x    frame= 3801 fps=434 q=-0.0 size=N/A time=00:02:38.53 bitrate=N/A speed=18.1x    frame= 4105 fps=443 q=-0.0 size=N/A time=00:02:51.21 bitrate=N/A speed=18.5x    frame= 4377 fps=447 q=-0.0 size=N/A time=00:03:02.55 bitrate=N/A speed=18.7x    frame= 4662 fps=452 q=-0.0 size=N/A time=00:03:14.44 bitrate=N/A speed=18.9x    frame= 4926 fps=455 q=-0.0 size=N/A time=00:03:25.45 bitrate=N/A speed=  19x    frame= 5180 fps=457 q=-0.0 size=N/A time=00:03:36.04 bitrate=N/A speed=19.1x    frame= 5440 fps=459 q=-0.0 size=N/A time=00:03:46.89 bitrate=N/A speed=19.1x    frame= 5702 fps=461 q=-0.0 size=N/A time=00:03:57.82 bitrate=N/A speed=19.2x    frame= 5957 fps=462 q=-0.0 size=N/A time=00:04:08.45 bitrate=N/A speed=19.3x    frame= 6225 fps=465 q=-0.0 size=N/A time=00:04:19.63 bitrate=N/A speed=19.4x    frame= 6474 fps=465 q=-0.0 size=N/A time=00:04:30.01 bitrate=N/A speed=19.4x    frame= 6714 fps=465 q=-0.0 size=N/A time=00:04:40.02 bitrate=N/A speed=19.4x    frame= 6995 fps=468 q=-0.0 size=N/A time=00:04:51.74 bitrate=N/A speed=19.5x    frame= 7254 fps=469 q=-0.0 size=N/A time=00:05:02.55 bitrate=N/A speed=19.6x    frame= 7531 fps=471 q=-0.0 size=N/A time=00:05:14.10 bitrate=N/A speed=19.7x    frame= 7809 fps=474 q=-0.0 size=N/A time=00:05:25.70 bitrate=N/A speed=19.8x    frame= 8092 fps=476 q=-0.0 size=N/A time=00:05:37.50 bitrate=N/A speed=19.8x    frame= 8350 fps=477 q=-0.0 size=N/A time=00:05:48.26 bitrate=N/A speed=19.9x    frame= 8617 fps=478 q=-0.0 size=N/A time=00:05:59.40 bitrate=N/A speed=19.9x    frame= 8890 fps=479 q=-0.0 size=N/A time=00:06:10.78 bitrate=N/A speed=  20x    frame= 9127 fps=478 q=-0.0 size=N/A time=00:06:20.67 bitrate=N/A speed=19.9x    frame= 9407 fps=480 q=-0.0 size=N/A time=00:06:32.35 bitrate=N/A speed=  20x    frame= 9667 fps=480 q=-0.0 size=N/A time=00:06:43.19 bitrate=N/A speed=  20x    frame= 9952 fps=482 q=-0.0 size=N/A time=00:06:55.08 bitrate=N/A speed=20.1x    frame=10238 fps=484 q=-0.0 size=N/A time=00:07:07.00 bitrate=N/A speed=20.2x    frame=10502 fps=485 q=-0.0 size=N/A time=00:07:18.02 bitrate=N/A speed=20.2x    frame=10782 fps=486 q=-0.0 size=N/A time=00:07:29.69 bitrate=N/A speed=20.3x    frame=11038 fps=486 q=-0.0 size=N/A time=00:07:40.37 bitrate=N/A speed=20.3x    frame=11292 fps=486 q=-0.0 size=N/A time=00:07:50.97 bitrate=N/A speed=20.3x    frame=11555 fps=487 q=-0.0 size=N/A time=00:08:01.93 bitrate=N/A speed=20.3x    frame=11812 fps=487 q=-0.0 size=N/A time=00:08:12.65 bitrate=N/A speed=20.3x    frame=12090 fps=488 q=-0.0 size=N/A time=00:08:24.25 bitrate=N/A speed=20.4x    frame=12380 fps=489 q=-0.0 size=N/A time=00:08:36.34 bitrate=N/A speed=20.4x    frame=12626 fps=489 q=-0.0 size=N/A time=00:08:46.60 bitrate=N/A speed=20.4x    frame=12876 fps=489 q=-0.0 size=N/A time=00:08:57.03 bitrate=N/A speed=20.4x    frame=13139 fps=490 q=-0.0 size=N/A time=00:09:08.00 bitrate=N/A speed=20.4x    frame=13419 fps=491 q=-0.0 size=N/A time=00:09:19.68 bitrate=N/A speed=20.5x    frame=13655 fps=490 q=-0.0 size=N/A time=00:09:29.52 bitrate=N/A speed=20.4x    frame=13931 fps=491 q=-0.0 size=N/A time=00:09:41.03 bitrate=N/A speed=20.5x    frame=14220 fps=492 q=-0.0 size=N/A time=00:09:53.09 bitrate=N/A speed=20.5x    frame=14498 fps=493 q=-0.0 size=N/A time=00:10:04.68 bitrate=N/A speed=20.6x    frame=14783 fps=494 q=-0.0 size=N/A time=00:10:16.57 bitrate=N/A speed=20.6x    frame=15051 fps=494 q=-0.0 size=N/A time=00:10:27.75 bitrate=N/A speed=20.6x    frame=15333 fps=495 q=-0.0 size=N/A time=00:10:39.51 bitrate=N/A speed=20.7x    frame=15609 fps=496 q=-0.0 size=N/A time=00:10:51.02 bitrate=N/A speed=20.7x    frame=15887 fps=497 q=-0.0 size=N/A time=00:11:02.62 bitrate=N/A speed=20.7x    frame=16174 fps=498 q=-0.0 size=N/A time=00:11:14.59 bitrate=N/A speed=20.8x    frame=16465 fps=499 q=-0.0 size=N/A time=00:11:26.72 bitrate=N/A speed=20.8x    frame=16706 fps=498 q=-0.0 size=N/A time=00:11:36.77 bitrate=N/A speed=20.8x    frame=16972 fps=498 q=-0.0 size=N/A time=00:11:47.87 bitrate=N/A speed=20.8x    frame=17223 fps=498 q=-0.0 size=N/A time=00:11:58.34 bitrate=N/A speed=20.8x    frame=17498 fps=499 q=-0.0 size=N/A time=00:12:09.81 bitrate=N/A speed=20.8x    frame=17789 fps=500 q=-0.0 size=N/A time=00:12:21.94 bitrate=N/A speed=20.8x    frame=18059 fps=500 q=-0.0 size=N/A time=00:12:33.21 bitrate=N/A speed=20.9x    frame=18329 fps=500 q=-0.0 size=N/A time=00:12:44.47 bitrate=N/A speed=20.9x    frame=18554 fps=499 q=-0.0 size=N/A time=00:12:53.85 bitrate=N/A speed=20.8x    frame=18815 fps=500 q=-0.0 size=N/A time=00:13:04.74 bitrate=N/A speed=20.8x    frame=19084 fps=500 q=-0.0 size=N/A time=00:13:15.96 bitrate=N/A speed=20.8x    frame=19370 fps=501 q=-0.0 size=N/A time=00:13:27.89 bitrate=N/A speed=20.9x    frame=19635 fps=501 q=-0.0 size=N/A time=00:13:38.94 bitrate=N/A speed=20.9x    frame=19904 fps=501 q=-0.0 size=N/A time=00:13:50.16 bitrate=N/A speed=20.9x    frame=20196 fps=502 q=-0.0 size=N/A time=00:14:02.34 bitrate=N/A speed=20.9x    frame=20468 fps=502 q=-0.0 size=N/A time=00:14:13.68 bitrate=N/A speed=20.9x    frame=20732 fps=502 q=-0.0 size=N/A time=00:14:24.69 bitrate=N/A speed=  21x    frame=21013 fps=503 q=-0.0 size=N/A time=00:14:36.41 bitrate=N/A speed=  21x    frame=21286 fps=503 q=-0.0 size=N/A time=00:14:47.80 bitrate=N/A speed=  21x    frame=21550 fps=503 q=-0.0 size=N/A time=00:14:58.81 bitrate=N/A speed=  21x    frame=21833 fps=504 q=-0.0 size=N/A time=00:15:10.61 bitrate=N/A speed=  21x    frame=22092 fps=504 q=-0.0 size=N/A time=00:15:21.42 bitrate=N/A speed=  21x    frame=22362 fps=504 q=-0.0 size=N/A time=00:15:32.68 bitrate=N/A speed=  21x    frame=22657 fps=505 q=-0.0 size=N/A time=00:15:44.98 bitrate=N/A speed=21.1x    frame=22943 fps=505 q=-0.0 size=N/A time=00:15:56.91 bitrate=N/A speed=21.1x    frame=23206 fps=505 q=-0.0 size=N/A time=00:16:07.88 bitrate=N/A speed=21.1x    frame=23463 fps=505 q=-0.0 size=N/A time=00:16:18.60 bitrate=N/A speed=21.1x    frame=23721 fps=505 q=-0.0 size=N/A time=00:16:29.36 bitrate=N/A speed=21.1x    frame=23981 fps=505 q=-0.0 size=N/A time=00:16:40.20 bitrate=N/A speed=21.1x    frame=24239 fps=505 q=-0.0 size=N/A time=00:16:50.96 bitrate=N/A speed=21.1x    frame=24507 fps=505 q=-0.0 size=N/A time=00:17:02.14 bitrate=N/A speed=21.1x    frame=24763 fps=505 q=-0.0 size=N/A time=00:17:12.82 bitrate=N/A speed=21.1x    frame=25033 fps=505 q=-0.0 size=N/A time=00:17:24.08 bitrate=N/A speed=21.1x    frame=25305 fps=506 q=-0.0 size=N/A time=00:17:35.42 bitrate=N/A speed=21.1x    frame=25563 fps=506 q=-0.0 size=N/A time=00:17:46.19 bitrate=N/A speed=21.1x    frame=25828 fps=506 q=-0.0 size=N/A time=00:17:57.24 bitrate=N/A speed=21.1x    frame=26083 fps=506 q=-0.0 size=N/A time=00:18:07.87 bitrate=N/A speed=21.1x    frame=26340 fps=506 q=-0.0 size=N/A time=00:18:18.59 bitrate=N/A speed=21.1x    frame=26626 fps=506 q=-0.0 size=N/A time=00:18:30.52 bitrate=N/A speed=21.1x    frame=26890 fps=506 q=-0.0 size=N/A time=00:18:41.53 bitrate=N/A speed=21.1x    frame=27158 fps=506 q=-0.0 size=N/A time=00:18:52.71 bitrate=N/A speed=21.1x    frame=27438 fps=507 q=-0.0 size=N/A time=00:19:04.39 bitrate=N/A speed=21.1x    frame=27701 fps=507 q=-0.0 size=N/A time=00:19:15.36 bitrate=N/A speed=21.1x    frame=27958 fps=507 q=-0.0 size=N/A time=00:19:26.08 bitrate=N/A speed=21.1x    frame=28195 fps=506 q=-0.0 size=N/A time=00:19:35.96 bitrate=N/A speed=21.1x    frame=28480 fps=506 q=-0.0 size=N/A time=00:19:47.85 bitrate=N/A speed=21.1x    frame=28743 fps=507 q=-0.0 size=N/A time=00:19:58.82 bitrate=N/A speed=21.1x    frame=29016 fps=507 q=-0.0 size=N/A time=00:20:10.20 bitrate=N/A speed=21.1x    frame=29296 fps=507 q=-0.0 size=N/A time=00:20:21.88 bitrate=N/A speed=21.1x    frame=29567 fps=507 q=-0.0 size=N/A time=00:20:33.19 bitrate=N/A speed=21.2x    frame=29858 fps=508 q=-0.0 size=N/A time=00:20:45.32 bitrate=N/A speed=21.2x    frame=30138 fps=508 q=-0.0 size=N/A time=00:20:57.00 bitrate=N/A speed=21.2x    frame=30401 fps=508 q=-0.0 size=N/A time=00:21:07.97 bitrate=N/A speed=21.2x    frame=30651 fps=508 q=-0.0 size=N/A time=00:21:18.40 bitrate=N/A speed=21.2x    frame=30898 fps=508 q=-0.0 size=N/A time=00:21:28.70 bitrate=N/A speed=21.2x    frame=31076 fps=506 q=-0.0 size=N/A time=00:21:36.12 bitrate=N/A speed=21.1x    frame=31315 fps=506 q=-0.0 size=N/A time=00:21:46.09 bitrate=N/A speed=21.1x    frame=31572 fps=506 q=-0.0 size=N/A time=00:21:56.81 bitrate=N/A speed=21.1x    frame=31835 fps=506 q=-0.0 size=N/A time=00:22:07.78 bitrate=N/A speed=21.1x    frame=32087 fps=506 q=-0.0 size=N/A time=00:22:18.29 bitrate=N/A speed=21.1x    frame=32319 fps=505 q=-0.0 size=N/A time=00:22:27.97 bitrate=N/A speed=21.1x    frame=32524 fps=504 q=-0.0 size=N/A time=00:22:36.52 bitrate=N/A speed=  21x    frame=32741 fps=504 q=-0.0 size=N/A time=00:22:45.57 bitrate=N/A speed=  21x    frame=32971 fps=503 q=-0.0 size=N/A time=00:22:55.16 bitrate=N/A speed=  21x    frame=33167 fps=502 q=-0.0 size=N/A time=00:23:03.34 bitrate=N/A speed=  21x    frame=33365 fps=501 q=-0.0 size=N/A time=00:23:11.59 bitrate=N/A speed=20.9x    frame=33592 fps=501 q=-0.0 size=N/A time=00:23:21.06 bitrate=N/A speed=20.9x    frame=33811 fps=500 q=-0.0 size=N/A time=00:23:30.20 bitrate=N/A speed=20.9x    frame=34035 fps=500 q=-0.0 size=N/A time=00:23:39.54 bitrate=N/A speed=20.9x    [Parsed_ssim_10 @ 000002a691f5e000] SSIM Y:0.995990 (23.968343) U:0.994535 (22.624007) V:0.994448 (22.555392) All:0.995490 (23.458548)
[out#0/null @ 000002a684ab3b80] video:14697KiB audio:267516KiB subtitle:0KiB other streams:0KiB global headers:0KiB muxing overhead: unknown
frame=34203 fps=500 q=-0.0 Lsize=N/A time=00:23:46.55 bitrate=N/A speed=20.9x    
